<?xml version="1.0" encoding="UTF-8"?>
<svg version="1.1" xmlns="http://www.w3.org/2000/svg" width="350" height="350">
<path d="M0 0 C115.5 0 231 0 350 0 C350 115.5 350 231 350 350 C234.5 350 119 350 0 350 C0 234.5 0 119 0 0 Z " fill="#FEFEFE" transform="translate(0,0)"/>
<path d="M0 0 C6.4424345 3.71526898 11.93682757 8.76857567 13.91015625 16.1015625 C16.09208367 30.6860247 8.12611307 41.23887055 0.22683716 52.82415771 C-1.53229413 55.40483332 -3.27472807 57.99664392 -5.01832581 60.58782959 C-5.94714352 61.96808693 -6.87670872 63.34784154 -7.80699158 64.72711182 C-13.1130107 72.60027622 -18.3213363 80.53706848 -23.52734375 88.4765625 C-24.49823636 89.95600918 -25.46918375 91.4354199 -26.44018555 92.91479492 C-28.37523505 95.86340222 -30.30968636 98.81240067 -32.24365234 101.76171875 C-35.00990199 105.98014627 -37.77815485 110.1972562 -40.546875 114.4140625 C-52.07233368 131.96926983 -63.58205737 149.53476737 -75.08984375 167.1015625 C-73.79660187 167.09045944 -72.50335999 167.07935638 -71.17092896 167.06791687 C-58.95972143 166.96638381 -46.7486 166.89152149 -34.53706551 166.84250164 C-28.25955685 166.8164524 -21.98239006 166.78113877 -15.70507812 166.72436523 C-9.64259372 166.66988026 -3.58043733 166.64010683 2.4822731 166.62717628 C4.79066249 166.61796609 7.09903473 166.59998074 9.40728378 166.57291222 C12.65065498 166.53640397 15.89268555 166.53162641 19.13623047 166.53393555 C20.55504265 166.50697098 20.55504265 166.50697098 22.0025177 166.47946167 C30.68161694 166.54594858 37.45721943 169.63134175 43.84765625 175.4765625 C49.03426688 181.17694116 50.49679728 186.7429558 50.2578125 194.328125 C49.35470658 201.53267782 45.53990409 208.47390977 39.91015625 213.1015625 C32.43013816 218.0090598 25.00685165 217.67588761 16.36547852 217.63500977 C14.79270623 217.64207546 13.21994074 217.6508232 11.64718628 217.66111755 C7.39294696 217.68354874 3.13908077 217.68068658 -1.11519504 217.67179608 C-4.67376365 217.66667246 -8.232263 217.67398989 -11.79082447 217.68126816 C-20.1891436 217.69824729 -28.58728093 217.69472144 -36.9855957 217.67797852 C-45.63470506 217.66105801 -54.28330968 217.67689511 -62.93236393 217.7092014 C-70.37298187 217.73593561 -77.81344307 217.74316301 -85.2541042 217.73468632 C-89.6916007 217.72976838 -94.12879362 217.73191106 -98.56625175 217.75247383 C-102.74028486 217.77089146 -106.91359453 217.7647988 -111.08758926 217.74027443 C-112.61412894 217.73528575 -114.14072431 217.73870562 -115.66721916 217.75142288 C-125.2268504 217.82472804 -132.72624138 217.19487584 -139.92265987 210.36110783 C-145.86822261 204.05946512 -147.41455081 197.75107268 -147.5859375 189.26171875 C-146.51703117 182.45270127 -142.24953824 176.54501479 -138.4765625 170.89453125 C-137.81361931 169.88976494 -137.81361931 169.88976494 -137.13728333 168.86470032 C-135.68802793 166.67010729 -134.23266619 164.47963585 -132.77734375 162.2890625 C-131.74692494 160.73078002 -130.71698591 159.17218021 -129.6875 157.61328125 C-127.55051822 154.37816438 -125.41148837 151.14441624 -123.27099609 147.91162109 C-118.83315478 141.20575566 -114.42051989 134.48336592 -110.00765991 127.76104736 C-107.62216641 124.12768695 -105.23482214 120.495543 -102.84765625 116.86328125 C-101.88964458 115.40543873 -100.93163677 113.94759368 -99.97363281 112.48974609 C-97.55793078 108.81376237 -95.14202255 105.13791422 -92.7260437 101.46211243 C-83.40176737 87.27564222 -74.0787539 73.08835047 -64.7649231 58.89501953 C-63.4769135 56.93245342 -62.18856502 54.97011016 -60.90014648 53.0078125 C-56.8358395 46.81679555 -52.77550908 40.62324449 -48.72558594 34.42280579 C-46.79314213 31.46473038 -44.85883883 28.50787321 -42.92437744 25.55111694 C-42.00315585 24.14191637 -41.08284658 22.73211891 -40.16351318 21.32168579 C-38.88994695 19.36789606 -37.61326909 17.41617314 -36.3359375 15.46484375 C-35.96396744 14.89237915 -35.59199738 14.31991455 -35.20875549 13.73010254 C-29.03749027 4.32482864 -29.03749027 4.32482864 -24.02734375 1.3515625 C-23.35574219 0.94421875 -22.68414062 0.536875 -21.9921875 0.1171875 C-15.44442423 -3.37853827 -6.71197179 -2.94940855 0 0 Z " fill="#010101" transform="translate(250.08984375,79.8984375)"/>
<path d="M0 0 C6.45532552 4.19479636 10.7086707 9.6320099 13 17 C14.33962077 25.31223708 12.90890627 32.14650285 8 39 C3.08081775 44.45432341 -2.30993166 48.40792045 -9.75390625 49.34765625 C-18.27450858 49.77205407 -24.60183256 47.8172774 -31.0703125 42.203125 C-36.67462638 36.34087199 -39.00950144 30.09913032 -39.5 22.0625 C-39.24980569 15.34895279 -36.59469069 9.88781474 -32.1328125 4.921875 C-22.80928461 -3.71236483 -11.49676264 -5.81063816 0 0 Z " fill="#020202" transform="translate(115,80)"/>
<path d="M0 0 C0.9964415 1.95807282 1.96103698 3.90877853 2.82421875 5.9296875 C5.79675328 12.62797799 9.9404303 16.20025312 16.1875 19.875 C23.48502242 22.02836727 30.37839645 22.1350428 37.375 18.9375 C44.88725852 14.6516602 48.48612481 8.7034956 52 1 C52.33 1 52.66 1 53 1 C52.79738883 8.95709313 50.47141144 14.12545691 45.18359375 20.02734375 C39.93858532 24.76567873 32.94178707 28.33491946 25.8125 28.625 C17.07029056 27.99556092 9.70140888 23.53795872 4 17 C0.42483065 11.40057984 -0.47694598 6.5580072 0 0 Z " fill="#D4D4D4" transform="translate(76,107)"/>
<path d="M0 0 C0.40089844 0.38671875 0.80179687 0.7734375 1.21484375 1.171875 C8.39338386 7.74813396 15.1459498 10.80474638 25.00390625 10.453125 C32.54965993 9.31191584 38.4973943 5.06818946 44 0 C43.63111839 3.3199345 42.26768122 5.50314704 39.8203125 7.76171875 C31.72111687 13.27125741 21.48722998 14.17853789 12 13 C7.55225107 11.51993414 3.89378637 8.6728827 1 5 C0.25 2.25 0.25 2.25 0 0 Z " fill="#BBBBBB" transform="translate(80,118)"/>
<path d="M0 0 C0.66 0.33 1.32 0.66 2 1 C-4.9099506 4.96682349 -8.894312 6.54716575 -17 6 C-20.125 5 -20.125 5 -22 4 C-22 3.67 -22 3.34 -22 3 C-20.24623047 2.92652344 -20.24623047 2.92652344 -18.45703125 2.8515625 C-16.90883196 2.77649829 -15.36065599 2.70095205 -13.8125 2.625 C-13.04357422 2.5940625 -12.27464844 2.563125 -11.48242188 2.53125 C-7.19885161 2.31063694 -3.97618343 1.72226401 0 0 Z " fill="#EEEEEE" transform="translate(114,129)"/>
<path d="M0 0 C0.33 0 0.66 0 1 0 C0.79008988 8.24374273 -1.74556847 13.48169565 -7.3125 19.5 C-7.869375 19.995 -8.42625 20.49 -9 21 C-9.99 20.67 -10.98 20.34 -12 20 C-10.824375 19.1028125 -10.824375 19.1028125 -9.625 18.1875 C-6.19268521 15.32723767 -4.79326452 12.73046665 -3.5 8.5625 C-2.55982362 5.54269433 -1.47888519 2.79840775 0 0 Z " fill="#E5E5E5" transform="translate(128,108)"/>
<path d="M0 0 C0.45890625 0.40992187 0.9178125 0.81984375 1.390625 1.2421875 C2.00421875 1.78101562 2.6178125 2.31984375 3.25 2.875 C3.85328125 3.40867187 4.4565625 3.94234375 5.078125 4.4921875 C6.97418746 5.9797487 8.81290005 7.00322436 11 8 C11 8.99 11 9.98 11 11 C12.32 11.33 13.64 11.66 15 12 C12 13 12 13 8.5625 11.3125 C4.63308411 8.88672952 1.51245539 6.87900311 0.25 2.25 C0.1675 1.5075 0.085 0.765 0 0 Z " fill="#C6C6C6" transform="translate(80,118)"/>
<path d="M0 0 C0.66 0.33 1.32 0.66 2 1 C-0.67031284 3.67733998 -2.03721441 4.00280229 -5.890625 4.29296875 C-7.34404009 4.27314945 -8.79731167 4.23754845 -10.25 4.1875 C-10.99507813 4.17396484 -11.74015625 4.16042969 -12.5078125 4.14648438 C-14.33885416 4.11127204 -16.16952169 4.05746851 -18 4 C-18 3.67 -18 3.34 -18 3 C-17.11957031 2.95101562 -16.23914063 2.90203125 -15.33203125 2.8515625 C-14.17058594 2.77679688 -13.00914063 2.70203125 -11.8125 2.625 C-10.08966797 2.52058594 -10.08966797 2.52058594 -8.33203125 2.4140625 C-5.19277934 2.02395617 -2.89898295 1.1843092 0 0 Z " fill="#E0E0E0" transform="translate(114,129)"/>
<path d="M0 0 C0.33 0 0.66 0 1 0 C0.67 2.97 0.34 5.94 0 9 C-1.32 9.33 -2.64 9.66 -4 10 C-3.52449439 8.51965236 -3.04448784 7.04074979 -2.5625 5.5625 C-2.29566406 4.73878906 -2.02882813 3.91507812 -1.75390625 3.06640625 C-1 1 -1 1 0 0 Z " fill="#D9D9D9" transform="translate(128,108)"/>
<path d="M0 0 C0.33 0.99 0.66 1.98 1 3 C-1.3125 5.5 -1.3125 5.5 -4 8 C-4.99 8 -5.98 8 -7 8 C-4.69 5.36 -2.38 2.72 0 0 Z " fill="#C3C3C3" transform="translate(123,118)"/>
</svg>
